<svg xml:space="preserve" xmlns="http://www.w3.org/2000/svg" viewBox="115.19999999999999 93.92435960591133 2982.4 1098.2758620689656" style="max-height: 500px" width="2982.4" height="1098.2758620689656">
  <defs>
    <clipPath id="a">
      <path d="M350.692 249.174C231.138 344.86 160.696 490.17 160.696 644.25a510 510 0 0 0 7.757 88.664c19.964 112.977 78.883 216.955 165.903 292.788 58.495 50.977 128.856 88.252 203.481 107.792 41.736 10.959 85.002 16.511 128.612 16.511 41.246 0 82.275-4.98 121.948-14.8 59.657-14.77 115.587-40.1 166.239-75.283a507.1 507.1 0 0 0 124.362-123.068q.201-.284.41-.555c43.421-61.297 72.032-129.744 85.033-203.442a510.7 510.7 0 0 0 7.743-88.61c0-154.09-70.432-299.394-189.978-395.06-7.32 72.696-39.218 140.054-91.644 192.336-59.9 59.726-139.479 92.63-224.074 92.645-84.622 0-164.202-32.889-224.113-92.609-52.455-52.306-84.362-119.68-91.683-192.386m315.755 936.959c-46.703 0-93.056-5.955-137.774-17.694-79.976-20.94-155.381-60.884-218.052-115.501-93.225-81.236-156.35-192.657-177.744-313.73a546 546 0 0 1-8.312-94.957c0-88.795 21.957-176.874 63.494-254.718 40.212-75.361 98.566-141.069 168.756-190.02a18.06 18.06 0 0 1 28.392 15.192c-.014.683-.012 1.382-.012 2.067 0 75.29 29.363 146.035 82.685 199.203 53.089 52.922 123.61 82.066 198.567 82.066 75.001-.013 145.523-29.17 198.603-82.1 53.298-53.148 82.651-123.879 82.651-199.169q.004-1.016-.014-2.032a18.07 18.07 0 0 1 9.53-16.316 18.07 18.07 0 0 1 18.86 1.104c70.19 48.945 128.54 114.644 168.75 190.003 41.53 77.844 63.482 165.923 63.482 254.72 0 31.818-2.788 63.742-8.292 94.887-13.982 79.239-44.784 152.8-91.556 218.642a16 16 0 0 1-.427.575 543 543 0 0 1-132.789 131.236c-54.28 37.706-114.225 64.852-178.168 80.683-42.51 10.522-86.461 15.859-130.63 15.859"/>
      <path d="M385.282 223.81c1.775 72.65 30.947 140.658 82.6 192.165 53.089 52.922 123.61 82.068 198.567 82.068 75.001-.017 145.521-29.174 198.603-82.104 51.63-51.48 80.79-119.47 82.566-192.115-83.267-55.844-180.268-85.31-281.169-85.31-100.875 0-197.876 29.458-281.167 85.296m281.206 310.357c-84.622 0-164.202-32.889-224.113-92.609-60.17-59.998-93.305-139.828-93.305-224.786 0-.933 0-1.888.02-2.82a18.07 18.07 0 0 1 7.723-14.44c91.102-63.539 198.17-97.125 309.636-97.125 111.494 0 218.565 33.594 309.636 97.145a18.07 18.07 0 0 1 7.723 14.42c.02.94.02 1.88.02 2.82 0 84.958-33.123 164.776-93.266 224.75-59.9 59.73-139.479 92.63-224.074 92.645"/>
      <path d="M282.568 929.256h767.839l-383.92-387.494zm811.164 36.125H239.243a18.061 18.061 0 0 1-12.83-30.773l427.243-431.222a18.067 18.067 0 0 1 25.664 0l427.244 431.22a18.06 18.06 0 0 1-12.832 30.775M163.498 748.777l-25.662-25.424 304.46-307.299 25.664 25.425zm1005.902-.069L864.973 441.444l25.664-25.424 304.427 307.264z"/>
      <path d="M684.512 1168.067h-36.126V947.32c0-4.764 1.88-9.333 5.233-12.715l213.663-215.61 25.66 25.433-208.43 210.326zm777.714-747.671h-68.814v405.992h228.216v-68.81h-159.404zm300.472 405.988h231.67v-68.81H1831.51v-121.57h139.918v-68.815H1831.51v-77.987h162.856V420.39h-231.669zm443.835-176.534V420.396h-68.811v405.907l373.373-405.907h-93.497zM2587.3 826.384h68.81V420.389h-68.81zm388.09-166.298 42.473-50.818v50.818zm110.633-239.69L2746.76 826.388h89.663l81.474-97.49h99.966v97.49h68.813V419.603z"/>
    </clipPath>
<linearGradient id="b" x1="0%" y1="0%" x2="0%" y2="100%">
      <stop offset="0%" stop-color="#D0BA95"/>
      <stop offset="50%" stop-color="#EBE0CC"/>
      <stop offset="100%" stop-color="#D0BA95"/>
    </linearGradient>
  </defs>
  <path d="M0 0h3200v1300H0z" fill="url(#b)" clip-path="url(#a)"/>
</svg>
